<?xml version="1.0" standalone="no"?>
<!DOCTYPE svg PUBLIC "-//W3C//DTD SVG 20010904//EN"
 "http://www.w3.org/TR/2001/REC-SVG-20010904/DTD/svg10.dtd">
<svg version="1.0" xmlns="http://www.w3.org/2000/svg"
 width="603.000000pt" height="603.000000pt" viewBox="0 0 603.000000 603.000000"
 preserveAspectRatio="xMidYMid meet">
<metadata>
Created by potrace 1.16, written by Peter Selinger 2001-2019
</metadata>
<g transform="translate(0.000000,603.000000) scale(0.100000,-0.100000)"
fill="#000000" stroke="none">
<path d="M0 3015 l0 -3015 3015 0 3015 0 0 3015 0 3015 -3015 0 -3015 0 0
-3015z m895 1560 l0 -60 -345 0 -345 0 -3 49 c-2 27 -1 55 2 62 5 12 63 14
348 12 l343 -3 0 -60z m3 -202 l-3 -58 -345 0 -345 0 -3 44 c-6 76 -31 71 353
71 l346 0 -3 -57z m2 -203 l0 -60 -220 0 -220 0 0 60 0 60 220 0 220 0 0 -60z
m-2 -202 l3 -58 -221 0 -220 0 0 60 0 60 218 -2 217 -3 3 -57z m0 -200 l3 -58
-221 0 -220 0 0 60 0 60 218 -2 217 -3 3 -57z m753 39 c51 -17 133 -57 164
-81 18 -14 -15 -15 -360 -15 -348 0 -378 1 -360 15 36 29 142 75 206 89 79 18
283 13 350 -8z m1852 -2 c108 -19 265 -60 309 -79 29 -13 -36 -14 -542 -15
-571 -1 -575 -1 -545 19 42 27 198 77 275 89 92 14 397 6 503 -14z m1747 -14
c52 -17 113 -42 135 -56 l40 -24 -447 -1 c-247 0 -448 2 -448 5 0 10 98 54
167 75 113 34 158 39 313 36 129 -4 155 -7 240 -35z m-4350 -226 l0 -55 -220
0 -220 0 0 55 0 55 220 0 220 0 0 -55z m1045 12 c14 -24 25 -49 25 -55 0 -9
-134 -12 -530 -12 -291 0 -530 3 -530 7 0 3 14 28 31 55 l31 48 474 0 473 0
26 -43z m1895 -12 l0 -55 -665 0 c-366 0 -665 3 -665 7 0 4 15 29 33 55 l32
48 633 0 632 0 0 -55z m1731 13 c18 -24 37 -49 42 -55 8 -10 -123 -13 -647
-13 -361 0 -656 3 -656 8 0 4 18 28 41 55 l41 47 573 0 573 0 33 -42z m-4471
-178 c-19 -10 -53 -37 -75 -59 l-39 -41 -263 0 -263 0 0 60 0 60 338 0 c335
-1 337 -1 302 -20z m914 -17 c3 -21 6 -48 6 -60 l0 -23 -235 0 -235 0 -9 24
c-5 12 -29 39 -52 60 l-43 36 281 0 280 0 7 -37z m876 11 c-6 -14 -10 -41 -10
-60 l0 -34 -210 0 -210 0 0 38 c0 20 3 47 6 60 6 22 7 22 220 22 l214 0 -10
-26z m950 -29 l0 -55 -205 0 -205 0 0 55 0 55 205 0 205 0 0 -55z m870 50 c0
-3 -10 -22 -23 -43 -13 -20 -26 -45 -30 -54 -6 -16 -26 -18 -232 -18 -152 0
-225 3 -225 11 0 6 10 33 21 60 l21 49 234 0 c129 0 234 -2 234 -5z m986 -49
c12 -30 19 -57 16 -60 -3 -4 -101 -6 -219 -6 l-213 0 -21 45 c-12 25 -25 48
-30 51 -32 19 12 24 219 24 l227 0 21 -54z m-4756 -153 c0 -5 -6 -30 -13 -58
l-13 -50 -227 -3 -227 -2 0 60 0 60 240 0 c132 0 240 -3 240 -7z m1090 -53 l0
-60 -225 0 -225 0 0 60 0 60 225 0 225 0 0 -60z m1217 30 c196 -29 336 -59
372 -80 10 -6 -200 -10 -557 -10 l-572 0 -10 24 c-5 13 -12 40 -15 60 l-7 36
291 0 c272 0 305 -2 498 -30z m2509 -27 c6 -29 9 -55 6 -58 -3 -3 -367 -5
-810 -5 l-804 0 7 43 c3 23 9 50 11 60 5 16 49 17 792 15 l787 -3 11 -52z
m-4846 -203 l0 -60 -225 0 -225 0 0 60 0 60 225 0 225 0 0 -60z m1120 0 l0
-60 -225 0 -225 0 0 60 0 60 225 0 225 0 0 -60z m1800 9 c22 -28 40 -55 40
-60 0 -5 -244 -9 -595 -9 -520 0 -600 2 -626 16 -35 18 -109 82 -109 95 0 5
270 9 625 9 l625 0 40 -51z m1950 -9 l0 -60 -820 0 -820 0 0 60 0 60 820 0
820 0 0 -60z m-4872 -202 l3 -58 -226 0 -225 0 0 53 c0 30 3 57 7 61 4 3 104
5 222 4 l216 -3 3 -57z m1122 2 l0 -60 -225 0 -225 0 0 53 c0 30 3 57 7 60 3
4 105 7 225 7 l218 0 0 -60z m1874 52 c3 -5 8 -32 12 -60 l7 -52 -223 0 c-201
0 -224 2 -248 19 -41 28 -113 50 -226 67 -55 8 -110 19 -121 24 -12 5 143 9
387 9 224 1 409 -3 412 -7z m738 -47 c9 -27 17 -53 17 -58 1 -4 -110 -6 -246
-5 l-247 3 -8 45 c-5 25 -6 51 -3 58 3 10 56 12 237 10 l233 -3 17 -50z
m-3737 -210 l0 -60 -220 0 -220 0 -3 49 c-5 81 -19 77 225 74 l218 -3 0 -60z
m1125 0 l0 -65 -222 2 -223 3 -3 49 c-5 81 -19 76 228 76 l220 0 0 -65z m845
0 l0 -60 -197 -3 -198 -2 0 65 0 65 198 -2 197 -3 0 -60z m1037 22 c-2 -21 -7
-49 -12 -63 l-10 -24 -220 0 c-121 0 -220 3 -220 8 0 4 7 16 16 27 8 11 19 36
25 57 l10 38 207 -2 207 -3 -3 -38z m839 -2 c27 -25 60 -50 74 -57 14 -6 25
-15 25 -20 0 -10 -581 -11 -597 0 -13 8 -52 90 -53 110 0 9 57 12 251 12 l252
0 48 -45z m-3653 -222 l-3 -58 -407 -3 -408 -2 0 60 0 60 410 0 411 0 -3 -57z
m1120 0 l-3 -58 -405 0 -405 0 -3 58 -3 57 411 0 411 0 -3 -57z m1625 28 c-10
-16 -30 -43 -46 -60 l-27 -31 -645 0 -645 0 0 60 0 60 691 0 691 0 -19 -29z
m1840 22 c2 -5 1 -30 -2 -58 l-6 -50 -628 -3 -628 -2 -55 51 c-29 29 -54 56
-54 60 0 11 1367 12 1373 2z m-4583 -253 l0 -60 -410 0 -410 0 0 60 0 60 410
0 410 0 0 -60z m1120 0 l0 -60 -410 0 -410 0 0 60 0 60 410 0 410 0 0 -60z
m1399 35 c-168 -88 -450 -118 -744 -79 -183 23 -395 74 -395 94 0 6 221 10
593 10 l592 -1 -46 -24z m2051 16 c0 -10 -86 -40 -185 -65 -183 -46 -479 -60
-645 -31 -92 16 -215 55 -270 85 -35 19 -32 19 533 20 338 0 567 -4 567 -9z
m140 -666 l0 -55 -2795 0 -2795 0 0 55 0 55 2795 0 2795 0 0 -55z m-3763 -510
c52 -16 104 -62 118 -105 9 -27 6 -30 -38 -37 -32 -5 -39 -1 -67 31 -28 32
-38 36 -80 36 -59 0 -93 -29 -110 -91 -14 -50 -8 -130 11 -172 16 -35 56 -57
104 -57 28 0 44 7 66 31 16 17 29 37 29 45 0 17 26 18 68 3 28 -10 30 -13 21
-36 -30 -80 -95 -123 -185 -123 -152 0 -244 127 -215 293 17 99 77 167 164
187 48 12 59 11 114 -5z m1633 4 c110 -25 170 -109 170 -239 0 -96 -30 -164
-92 -206 -38 -27 -48 -29 -133 -29 -85 0 -95 2 -133 29 -62 42 -92 110 -92
206 0 128 54 208 159 236 57 16 66 16 121 3z m1485 -22 c36 -20 95 -100 83
-113 -3 -2 -26 -7 -51 -10 -39 -6 -47 -4 -47 9 0 28 -49 57 -96 57 -34 0 -51
-6 -76 -29 -30 -27 -33 -34 -36 -104 -2 -42 1 -91 8 -111 31 -95 157 -104 196
-16 l17 38 43 -15 c24 -8 44 -20 44 -26 0 -5 -11 -29 -25 -53 -36 -61 -94 -87
-185 -82 -59 3 -74 8 -107 34 -111 89 -125 274 -29 380 67 75 170 91 261 41z
m530 5 c30 -18 79 -98 69 -113 -3 -5 -24 -9 -47 -9 -36 0 -44 4 -59 30 -15 27
-22 30 -67 30 -46 0 -81 -17 -81 -39 0 -21 33 -42 100 -61 41 -12 88 -29 103
-37 65 -33 87 -130 44 -194 -32 -49 -79 -69 -159 -69 -74 0 -112 11 -145 42
-21 20 -60 104 -52 112 2 2 24 6 49 7 40 3 45 1 48 -18 9 -61 120 -86 167 -38
14 13 25 29 25 35 0 23 -40 48 -105 64 -89 22 -122 40 -145 79 -39 63 -19 146
43 179 59 31 157 31 212 0z m-5115 -22 l0 -40 -125 0 -125 0 0 -55 0 -55 121
0 120 0 -3 -37 -3 -38 -117 -3 -118 -3 0 -59 0 -59 128 -3 127 -3 0 -40 0 -40
-175 0 -175 0 -3 225 c-1 123 0 230 2 237 4 10 47 13 176 13 l170 0 0 -40z
m1028 -2 l3 -37 -128 -3 -128 -3 0 -50 0 -50 118 -3 117 -3 0 -39 0 -40 -120
0 -120 0 0 -60 0 -60 130 0 130 0 0 -45 0 -45 -175 0 -175 0 0 240 0 240 173
-2 172 -3 3 -37z m1090 0 l3 -38 -70 0 -71 0 -2 -197 -3 -198 -45 0 -45 0 -3
198 -2 197 -70 0 -70 0 0 40 0 40 188 -2 187 -3 3 -37z m470 18 c42 -22 66
-75 59 -129 -7 -50 -28 -80 -71 -101 l-36 -17 25 -22 c29 -26 115 -157 115
-174 0 -9 -17 -13 -50 -13 l-49 0 -47 73 c-65 102 -91 127 -131 127 l-32 0 -3
-97 -3 -98 -45 0 -45 0 -3 239 -2 238 142 -4 c112 -3 150 -8 176 -22z m1037
-128 l90 -147 3 150 3 149 44 0 45 0 0 -241 0 -240 -47 3 -48 3 -90 145 -90
145 -5 -145 -5 -145 -42 -3 -43 -3 0 241 0 241 47 -3 48 -3 90 -147z m470 -88
l0 -235 -45 0 -45 0 -3 238 -2 238 47 -3 48 -3 0 -235z m-3815 40 l0 -189 118
-3 117 -3 0 -40 0 -40 -165 0 -165 0 -3 220 c-1 121 0 225 2 232 3 8 23 13 51
13 l45 0 0 -190z"/>
<path d="M3540 922 c-71 -72 -60 -228 20 -276 33 -19 88 -21 125 -4 83 38 98
220 23 283 -24 20 -40 25 -85 25 -47 0 -59 -4 -83 -28z"/>
<path d="M2950 890 l0 -60 63 0 c80 0 111 16 115 57 5 46 -26 63 -110 63 l-68
0 0 -60z"/>
</g>
</svg>
